# xmcd CD database file
#
# Track frame offsets:
#	150
#	11750
#	23868
#	34624
#	46399
#	61277
#	76511
#	99132
#	110261
#	123043
#
# Disc length: 1817 seconds
#
# Revision: 0
# Processed by: cddbd v1.5.2PL0 Copyright (c) Steve Scherf et al.
# Submitted via: CDex 1.50beta10
#
DISCID=6507170a
DTITLE=Waylon Jennings - Ladies Love Outlaws
DYEAR=1972
DGENRE=Country
TTITLE0=Ladies Love Outlaws
TTITLE1=Never Been To Spain
TTITLE2=Sure Didn't Take Him Long
TTITLE3=Crazy Arms
TTITLE4=Revelations
TTITLE5=Delta Dawn
TTITLE6=Frisco Depot
TTITLE7=Thanks
TTITLE8=I Think It's Time She Learned
TTITLE9=Under Your Spell Again
EXTD=YEAR: 1972
EXTT0=
EXTT1=
EXTT2=
EXTT3=
EXTT4=
EXTT5=
EXTT6=
EXTT7=
EXTT8=
EXTT9=
PLAYORDER=
